<?xml version="1.0" encoding="UTF-8" standalone="no"?>
<!-- Uploaded to: SVG Repo, www.svgrepo.com, Generator: SVG Repo Mixer Tools -->

<svg
   width="800px"
   height="800px"
   viewBox="0 0 24 24"
   fill="none"
   version="1.1"
   id="svg2"
   sodipodi:docname="edit.svg"
   inkscape:version="1.4 (86a8ad7, 2024-10-11)"
   xmlns:inkscape="http://www.inkscape.org/namespaces/inkscape"
   xmlns:sodipodi="http://sodipodi.sourceforge.net/DTD/sodipodi-0.dtd"
   xmlns="http://www.w3.org/2000/svg"
   xmlns:svg="http://www.w3.org/2000/svg">
  <defs
     id="defs2" />
  <sodipodi:namedview
     id="namedview2"
     pagecolor="#ffffff"
     bordercolor="#000000"
     borderopacity="0.25"
     inkscape:showpageshadow="2"
     inkscape:pageopacity="0.0"
     inkscape:pagecheckerboard="0"
     inkscape:deskcolor="#d1d1d1"
     inkscape:zoom="1.00875"
     inkscape:cx="399.50434"
     inkscape:cy="400"
     inkscape:window-width="1920"
     inkscape:window-height="1009"
     inkscape:window-x="-8"
     inkscape:window-y="-8"
     inkscape:window-maximized="1"
     inkscape:current-layer="svg2" />
  <path
     d="M17.0671 2.27157C17.5 2.09228 17.9639 2 18.4324 2C18.9009 2 19.3648 2.09228 19.7977 2.27157C20.2305 2.45086 20.6238 2.71365 20.9551 3.04493C21.2864 3.37621 21.5492 3.7695 21.7285 4.20235C21.9077 4.63519 22 5.09911 22 5.56761C22 6.03611 21.9077 6.50003 21.7285 6.93288C21.5492 7.36572 21.2864 7.75901 20.9551 8.09029L20.4369 8.60845L15.3916 3.56308L15.9097 3.04493C16.241 2.71365 16.6343 2.45086 17.0671 2.27157Z"
     fill="#000000"
     id="path1"
     style="fill:#ff0000;fill-opacity:1" />
  <path
     d="M13.9774 4.9773L3.6546 15.3001C3.53154 15.4231 3.44273 15.5762 3.39694 15.7441L2.03526 20.7369C1.94084 21.0831 2.03917 21.4534 2.29292 21.7071C2.54667 21.9609 2.91693 22.0592 3.26314 21.9648L8.25597 20.6031C8.42387 20.5573 8.57691 20.4685 8.69996 20.3454L19.0227 10.0227L13.9774 4.9773Z"
     fill="#000000"
     id="path2"
     style="fill:#ff0000;fill-opacity:1" />
</svg>
